<svg width="70" height="56" viewBox="0 0 70 56" fill="none" xmlns="http://www.w3.org/2000/svg">
<g filter="url(#filter0_d_1_369)">
<g clip-path="url(#clip0_1_369)">
<rect x="8" width="53.3333" height="40" rx="8" fill="white"/>
<path d="M8 0H61.3333V40H8" fill="#EC1B2E"/>
<path d="M36.8582 8.59167C30.2499 8.16667 27.2165 16.825 33.4665 20.025C31.2999 18.1583 31.7499 15.4167 32.6249 13.9917L32.7832 14.0833C31.6332 16.0417 31.8499 18.475 33.7082 20C32.6499 18.975 32.9165 16.75 34.7165 15.925C36.5165 15.1 36.6832 12.65 36.0832 11.8333C35.2665 10.4111 35.5249 9.33056 36.8582 8.59167ZM33.6582 13.6667L33.2665 14.2833L33.1165 13.5667L32.3999 13.375L33.0499 13.0167L32.9999 12.275L33.5415 12.7833L34.2332 12.5083L33.9249 13.1833L34.3915 13.75L33.6582 13.6667Z" fill="white"/>
<path d="M46.0392 19.355C44.4014 12.9388 35.2294 12.7295 34.1174 19.6624C35.2232 17.025 37.9697 16.6057 39.5954 16.9975L39.5571 17.1764C37.3393 16.6879 35.092 17.6459 34.2159 19.8845C34.8637 18.5613 37.0622 18.1273 38.403 19.5843C39.7439 21.0412 42.1255 20.4426 42.7168 19.6196C43.817 18.4035 44.9245 18.3152 46.0392 19.355ZM40.2238 17.8799L39.5163 17.6979L40.1515 17.3338L40.1123 16.593L40.654 17.1004L41.3439 16.8237L41.0278 17.4959L41.5031 18.0688L40.7659 17.9841L40.3711 18.6031L40.2238 17.8799Z" fill="white"/>
<path d="M38.6402 31.4127C44.2363 27.8723 41.6011 19.0846 34.6638 20.1694C37.5139 20.406 38.7613 22.8886 38.891 24.5558L38.7091 24.5747C38.4884 22.3144 36.8828 20.4731 34.483 20.3317C35.9417 20.5389 37.0338 22.4957 36.0625 24.2211C35.0912 25.9466 36.3964 28.0266 37.3618 28.3347C38.8585 29.0052 39.2846 30.0313 38.6402 31.4127ZM38.2461 25.4261L38.2005 24.697L38.7431 25.1886L39.4355 24.9224L39.1203 25.5944L39.5967 26.165L38.8597 26.0721L38.4618 26.7012L38.3144 25.9738L37.6038 25.7897L38.2461 25.4261Z" fill="white"/>
<path d="M24.886 28.1016C29.9825 32.3297 37.5257 27.1079 34.3503 20.8454C35.006 23.6291 33.0304 25.5826 31.4849 26.2212L31.4107 26.0539C33.4921 25.1456 34.7471 23.0496 34.1401 20.7236C34.3938 22.1749 32.8703 23.8182 30.9291 23.4276C28.9879 23.037 27.413 24.9212 27.4184 25.9345C27.2432 27.5652 26.399 28.2875 24.886 28.1016ZM30.4579 25.8767L31.1372 25.608L30.8373 26.276L31.3045 26.8523L30.568 26.7602L30.1725 27.3896L30.0331 26.6599L29.3119 26.4759L29.9581 26.111L29.9136 25.3783L30.4579 25.8767Z" fill="white"/>
<path d="M23.7848 13.9974C21.3385 20.1509 28.6357 25.7114 33.6104 20.7561C31.1656 22.2399 28.6972 20.9647 27.6123 19.6922L27.7484 19.5699C29.2555 21.2688 31.6367 21.8147 33.6613 20.5186C32.3595 21.2084 30.3258 20.2672 30.0974 18.3003C29.869 16.3335 27.5904 15.4179 26.6283 15.7362C25.0233 16.0734 24.0755 15.4938 23.7848 13.9974ZM27.6225 18.609L28.088 19.1721L27.36 19.0933L26.9563 19.7156L26.8164 18.9867L26.0955 18.8051L26.7464 18.447L26.6986 17.7042L27.2453 18.206L27.9284 17.9373L27.6225 18.609Z" fill="white"/>
</g>
</g>
<defs>
<filter id="filter0_d_1_369" x="0" y="0" width="69.3335" height="56" filterUnits="userSpaceOnUse" color-interpolation-filters="sRGB">
<feFlood flood-opacity="0" result="BackgroundImageFix"/>
<feColorMatrix in="SourceAlpha" type="matrix" values="0 0 0 0 0 0 0 0 0 0 0 0 0 0 0 0 0 0 127 0" result="hardAlpha"/>
<feMorphology radius="8" operator="erode" in="SourceAlpha" result="effect1_dropShadow_1_369"/>
<feOffset dy="8"/>
<feGaussianBlur stdDeviation="8"/>
<feComposite in2="hardAlpha" operator="out"/>
<feColorMatrix type="matrix" values="0 0 0 0 0.392157 0 0 0 0 0.101961 0 0 0 0 0.678431 0 0 0 0.16 0"/>
<feBlend mode="normal" in2="BackgroundImageFix" result="effect1_dropShadow_1_369"/>
<feBlend mode="normal" in="SourceGraphic" in2="effect1_dropShadow_1_369" result="shape"/>
</filter>
<clipPath id="clip0_1_369">
<rect x="8" width="53.3333" height="40" rx="8" fill="white"/>
</clipPath>
</defs>
</svg>
