<svg width="70" height="56" viewBox="0 0 70 56" fill="none" xmlns="http://www.w3.org/2000/svg">
<g filter="url(#filter0_d_1_352)">
<g clip-path="url(#clip0_1_352)">
<rect x="8" width="53.3333" height="40" rx="8" fill="white"/>
<mask id="mask0_1_352" style="mask-type:luminance" maskUnits="userSpaceOnUse" x="8" y="0" width="54" height="40">
<path d="M8 0H61.3333V40H8V0Z" fill="white"/>
</mask>
<g mask="url(#mask0_1_352)">
<path fill-rule="evenodd" clip-rule="evenodd" d="M6.3335 0H66.3335V40H6.3335V0Z" fill="white"/>
<path fill-rule="evenodd" clip-rule="evenodd" d="M6.3335 0H66.3335V20H6.3335V0Z" fill="#DF0000"/>
<path fill-rule="evenodd" clip-rule="evenodd" d="M20.167 3.34997C18.5885 3.6892 17.1747 4.56117 16.1631 5.81949C15.1515 7.07781 14.6036 8.64586 14.6115 10.2604C14.6193 11.8749 15.1823 13.4376 16.2061 14.686C17.2298 15.9345 18.6519 16.7927 20.2336 17.1166C19.3275 17.3788 18.3786 17.4596 17.4412 17.3542C16.5038 17.2489 15.5964 16.9595 14.7711 16.5027C13.9458 16.0459 13.2188 15.4307 12.6318 14.6924C12.0447 13.954 11.6093 13.107 11.3503 12.2C10.8359 10.3767 11.0644 8.42397 11.9857 6.76868C12.9071 5.11339 14.4463 3.89023 16.267 3.36664C17.6003 2.9833 18.8336 2.97497 20.1753 3.34997H20.167Z" fill="white"/>
<path fill-rule="evenodd" clip-rule="evenodd" d="M19.0837 9.16666L19.492 10.4167L18.4087 9.65L17.342 10.4333L17.7337 9.16666L16.667 8.39166L17.992 8.375L18.4087 7.125L18.8253 8.375H20.142L19.0837 9.16666ZM20.542 13.5L20.9587 14.7583L19.8753 13.9917L18.8003 14.7667L19.2003 13.5083L18.1337 12.725L19.4587 12.7167L19.867 11.4583L20.2837 12.7083H21.617L20.542 13.5ZM25.417 13.4667L25.8253 14.7333L24.742 13.9583L23.6753 14.7333L24.067 13.475L23.0003 12.7L24.3253 12.6833L24.742 11.4333L25.1587 12.6833H26.4753L25.417 13.4667ZM26.867 9.16666L27.2753 10.425L26.192 9.65833L25.1253 10.4333L25.5253 9.175L24.4503 8.39166L25.7837 8.38333L26.1837 7.125L26.6003 8.375H27.9337L26.867 9.16666ZM23.0087 6.30833L23.4253 7.575L22.342 6.8L21.267 7.58333L21.667 6.31666L20.6003 5.53333L21.917 5.525L22.3337 4.26666L22.7503 5.51666H24.0837L23.0087 6.30833Z" fill="white"/>
</g>
</g>
</g>
<defs>
<filter id="filter0_d_1_352" x="0" y="0" width="69.3335" height="56" filterUnits="userSpaceOnUse" color-interpolation-filters="sRGB">
<feFlood flood-opacity="0" result="BackgroundImageFix"/>
<feColorMatrix in="SourceAlpha" type="matrix" values="0 0 0 0 0 0 0 0 0 0 0 0 0 0 0 0 0 0 127 0" result="hardAlpha"/>
<feMorphology radius="8" operator="erode" in="SourceAlpha" result="effect1_dropShadow_1_352"/>
<feOffset dy="8"/>
<feGaussianBlur stdDeviation="8"/>
<feComposite in2="hardAlpha" operator="out"/>
<feColorMatrix type="matrix" values="0 0 0 0 0.392157 0 0 0 0 0.101961 0 0 0 0 0.678431 0 0 0 0.16 0"/>
<feBlend mode="normal" in2="BackgroundImageFix" result="effect1_dropShadow_1_352"/>
<feBlend mode="normal" in="SourceGraphic" in2="effect1_dropShadow_1_352" result="shape"/>
</filter>
<clipPath id="clip0_1_352">
<rect x="8" width="53.3333" height="40" rx="8" fill="white"/>
</clipPath>
</defs>
</svg>
